<?xml version="1.0" standalone="no"?>
<!DOCTYPE svg PUBLIC "-//W3C//DTD SVG 1.1//EN" "http://www.w3.org/Graphics/SVG/1.1/DTD/svg11.dtd" >
<svg xmlns="http://www.w3.org/2000/svg">
<metadata>Generated by IcoMoon</metadata>
<defs>
<font id="icomoon" horiz-adv-x="512">
<font-face units-per-em="512" ascent="480" descent="-32" />
<missing-glyph horiz-adv-x="512" />
<glyph unicode="&#x20;" d="" horiz-adv-x="256" />
<glyph unicode="&#xe600;" d="M598.976 214.4v-12.672c0-6.944 5.728-12.64 12.736-12.64s12.768 5.696 12.768 12.64v12.672c0 6.944-5.76 12.608-12.768 12.608s-12.736-5.664-12.736-12.608zM560.672 277.632v-75.904c0-6.944 5.728-12.64 12.704-12.64 7.040 0 12.736 5.696 12.736 12.64v75.904c0 6.976-5.728 12.64-12.736 12.64-6.976-0.032-12.704-5.664-12.704-12.64zM522.336 283.936v-82.208c0-6.944 5.76-12.64 12.768-12.64s12.736 5.696 12.736 12.64v82.208c0 6.912-5.728 12.64-12.736 12.64s-12.768-5.728-12.768-12.64zM198.56 227.392l86.816 89.248 88.8-87.232-86.816-89.184-88.8 87.168zM139.936 450.112v0c0.736-1.6 1.408-3.104 2.144-4.64-1.28 1.12-2.24 2.464-2.144 4.64zM129.28 476.768c-7.68-0.928-11.776-3.52-13.12-13.28-2.72-8.928 2.816-22.688 6.176-29.248 11.84-15.616 14.016-30.624 12.736-46.016-14.4-14.24-26.752-30.464-36.96-48.224-0.128 0-0.224 0.064-0.384 0.064h-59.2c-20.48 0-37.056-16.736-37.056-37.408v-67.328c0-20.64 16.576-37.344 37.056-37.344l32.416-4.128c6.752-44.672 26.688-84.96 55.456-116.896v-73.472c0 0-3.552-21.984 5.632-28.448 9.28-10.4 28.448 0 28.448 0l45.376 45.536c26.048-10.944 54.496-17.088 84.512-17.088 30.144 0 58.816 6.144 85.024 17.216l45.824-46.72c0 0 19.072-10.56 28.192 0 9.216 6.56 5.632 28.736 5.632 28.736v74.944c35.648 39.776 57.568 92.384 57.568 150.24 0 123.904-99.456 224.32-222.208 224.32-20.672 0-40.64-3.072-59.616-8.384-14.528 11.392-48.096 33.856-87.904 33.856-4.448 0-8.96-0.288-13.6-0.928z" />
<glyph unicode="&#xe601;" d="M355.776 47.264l189.696-79.2v15.904l-173.856 79.104-15.84-15.808zM339.968 142.048v-47.328c0-69.28-126.464-112.704-205.472-110.752v-15.904c0 0 220.352 3.616 221.28 126.656v47.328h-15.808zM213.536 189.6v-142.336h15.808v126.56h237.152v-126.56h15.744v142.336h-268.704zM1256.192 411.040h97.632v-336.448h-97.632v336.448zM1245.312 421.92v-412.448h10.88v54.304h97.632v-54.304h10.944v412.448h-119.456zM1573.024 411.104h110.688v-189.856h-110.688v189.856zM1447.424 413.792l109.824-2.688v-189.856h-110.656l0.832 192.544zM1430.72 426.912v-379.648c0-25.28 12.32-41.28 25.568-51.712 10.368-13.344 38.176-12.992 69.376-11.552h94.848c68.192-2.976 110.688 14.368 110.688 63.296-1.184 26.656 0 45.472 0 63.232h-15.808c0-17.76 4.064-37.024 1.024-63.776 0-41.472-35.168-49.92-95.904-46.88h-94.848c-26.72 0-36.032-0.096-47.424 0-10.432 7.36-30.784 25.44-30.784 49.12v153.472l252.16 2.976v221.472h-268.896zM976.608 440.48c4.448-2.976 12.576-8.864 24.448-17.728 31.104-22.272 52.576-37.856 64.48-46.752l6.752 6.656c-26.752 20.736-57.12 42.976-91.232 66.72l-4.448-8.896zM87.072 474.368v-110.72h-63.232v-15.84h63.232v-126.56l-79.072-31.648v-15.776l79.040 31.616v-189.824c0-27.776-17.28-33.088-47.392-31.648h-31.648v-15.904l37.536 0.864c37.056-1.504 58.752 14.048 57.312 46.688v205.632l47.424 15.872v15.776l-47.392-15.776v110.688h47.392v15.84h-47.392v110.72h-15.808zM260.928 474.368v-63.264h-47.392c-3.232-6.464 11.552 23.776 15.808 47.456h-15.808c-10.368-38.56-28.224-66.784-47.424-94.912l15.776-15.84c9.408 14.112 21.376 32.32 31.648 47.456h47.392v-63.264h-110.656v-15.808h63.264c0.992-71.712-18.816-81.12-63.264-110.752l15.84-15.84c49.856 44 63.232 55.392 63.232 126.592h47.392v-79.072h-15.808l15.808-15.904 15.84 15.904 63.232 31.616-15.808 15.84-47.424-31.68v63.296h47.392v15.808h-63.232v63.264h63.232v15.84h-63.232v63.264h-15.808zM434.88 474.368v-63.264h-47.424c4.384 4.48 15.328 31.648 15.776 47.456h-15.776c-5.984-31.136-9.44-43.488-31.648-79.072v-31.68c8.896 11.904 20.256 29.664 31.648 47.456h47.424v-63.264h-79.104v-15.808h31.648c0-52-13.632-80.352-55.104-102.624l6.688-8.864c45.376 19.264 64.192 56.64 64.192 111.488h47.424l-0.48-53.632c0-14.912 2.944-24.48 8.832-28.992 5.952-5.888 9.888-12.352 23.232-12.352h15.84c25.12-1.472 48-0.128 47.36 47.488v31.648h-15.84v-47.424c1.536-19.328-10.848-17.344-31.52-15.776h-15.808c-10.432 0-11.392 0.192-14.336 3.168-4.416 4.48-1.472 18.016-1.472 28.448v47.424h63.2v15.808h-78.976v63.264h78.976v15.84h-78.976v63.264h-15.776zM909.088 474.368l0.8-122.848c0-2.976 0.736-6.688 2.272-11.136 0-5.952-3.104-5.472-3.104-8.384l-94.88-15.808 15.776-15.84 82.176 15.616c2.912-32.672 6.528-63.84 11.040-93.44l-102.272-15.616 2.304-11.104 99.968 15.584c10.368-60.864 21.44-107.232 33.344-132.48-54.88-32.608-103.072-52.16-144.544-65.472l2.048-17.28c53.376 19.328 97.952 40.256 142.464 66.944 11.84-28.224 29.632-44 47.36-63.264 17.792-22.336 40.992-31.744 63.2-31.744 22.24-1.376 37.152 14.944 47.552 47.552 2.88 7.328 9.824 16.224 15.744 47.424 2.944 13.376-1.504 25.696 0 31.648h-15.744c1.6-35.648-10.016-58.336-15.904-79.104-7.424-26.72-13.824-33.088-31.648-31.648-17.728 0-32.128 11.104-51.584 28.352-20.8 17.504-30.816 39.232-42.432 62.528 54.080 39.648 96.352 68.864 123.104 98.56l-12.8 8.992c-31.232-32.64-63.616-58.016-111.008-87.68-13.376 34.080-24.224 77.664-31.584 126.528l189.696 31.68v15.808l-189.696-31.616c-5.952 20.704-7.84 48-12.256 79.904 3.552 0.352 186.176 30.752 186.176 30.752v15.872l-189.792-31.648c-1.536 5.952 0 12.8 0 15.808v126.56h-15.776zM608.736 268.736h15.84c6.368 8.352 12.32 16.448 17.984 24.576l2.784-8.48h55.616v-95.744h-88.96l-3.264-15.296h94.88v-174.016l-15.808-15.84h31.552v15.84l79.136 47.424v15.808l-79.136-47.424v158.24h94.848v15.776h-94.848v94.976h79.136v15.776h-150.976c13.056 18.976 25.504 38.656 40.288 63.296-3.52 1.44 126.4 0 126.4 0v15.808h-126.4c11.776 28.128 25.216 63.776 31.552 94.88l-11.776 1.728c-28.192-84.512-63.264-155.456-98.848-207.328z" horiz-adv-x="1744" />
<glyph unicode="&#xe602;" d="M397.392 235.79l-282.785-0.039c-6.514 0.039-11.79-5.234-11.79-11.75s5.275-11.79 11.79-11.79h282.865c6.514 0 11.79 5.275 11.79 11.79s-5.356 11.79-11.869 11.79z" />
<glyph unicode="&#xe603;" d="M401.953 236.171h-133.783v133.783c0 6.724-5.445 12.171-12.171 12.171s-12.171-5.445-12.171-12.171v-133.824h-133.783c-6.724 0.041-12.171-5.404-12.171-12.129s5.445-12.171 12.171-12.171h133.825v-133.825c0-6.724 5.445-12.171 12.17-12.171s12.171 5.445 12.171 12.171v133.825h133.825c6.724 0 12.171 5.445 12.171 12.171s-5.529 12.171-12.252 12.171z" />
<glyph unicode="&#xe604;" d="M256 59.284c-81.254 0-147.166 65.913-147.166 147.192 0 81.306 65.886 147.219 147.166 147.219 81.254 0 147.166-65.913 147.166-147.219 0-81.279-65.913-147.192-147.166-147.192v0zM190.775 378.268l65.225 103.947 65.305-103.974c-20.313 7.724-42.267 12.141-65.305 12.141-23.011 0-44.911-4.417-65.225-12.113v0z" />
<glyph unicode="&#xe606;" d="M135.691 105.063v-0.199h-0.119l0.119 0.199zM152.029 145.927l25.481 63.762 10.196 10.195v-25.7h14.887v-29.774h29.794v-14.868l10.952 0.159-2.903-2.902-66.724-26.733-21.684 25.858zM217.5 194.186l-14.906 14.906v25.68l92.88 92.88 62.47-62.53 0.974 0.179-100.85-100.87h-18.226v14.906h-22.34v14.846zM301 333.198l9.938 9.938 62.926-62.907-9.978-9.998-62.887 62.967zM300.402 353.65l-133.406-133.426c-1.45-1.432-2.564-3.14-3.299-4.99l-41.938-104.845c-0.716-1.788-1.074-3.657-1.074-5.505 0-3.876 1.531-7.692 4.373-10.514 2.843-2.882 6.64-4.392 10.515-4.392 1.869 0 3.736 0.357 5.525 1.092l104.865 41.918c1.888 0.736 3.577 1.868 4.99 3.299l133.406 133.426c2.902 2.922 4.392 6.738 4.392 10.534s-1.471 7.633-4.392 10.534l-62.887 62.888c-2.802 2.802-6.599 4.373-10.553 4.373s-7.712-1.591-10.514-4.392z" />
<glyph unicode="&#xe607;" d="M243.214 368.404v-127.731h-127.764c-7.058 0-12.787-5.728-12.787-12.786s5.763-12.752 12.787-12.752h127.764v-127.798c0-6.99 5.695-12.719 12.786-12.719 7.058 0 12.786 5.728 12.786 12.719v127.798h127.731c7.058 0 12.786 5.695 12.786 12.752s-5.728 12.786-12.786 12.786h-127.764v127.731c0 7.058-5.728 12.786-12.752 12.786-7.092 0-12.786-5.728-12.786-12.786z" />
<glyph unicode="&#xe608;" d="M377.366 216.923c-8.352 1.010-14.286 8.748-13.186 17.231 1.142 8.44 8.967 14.462 17.407 13.451s14.331-8.748 13.143-17.231c-1.010-7.824-7.737-13.583-15.429-13.583-0.659 0-1.275 0.043-1.934 0.132zM379.345 265.188c-18.155-0.087-32.791-14.858-32.704-33.011 0.043-18.155 14.769-32.88 32.924-32.835 18.067 0.087 32.704 14.813 32.66 33.011-0.087 18.198-14.769 32.835-32.88 32.835 0 0 0 0 0 0zM48.17 97.798v252.448c0 8.352 6.462 15.166 14.419 15.166l267.613-1.406c4.967 0 13.759-12.044 16.44-16.484l108.356-117.718c3.429-4.528 4.089-10.77 1.714-15.869l-110.069-113.454c-2.682-4.396-11.474-16.484-16.44-16.484l-267.613-1.318c-7.956 0-14.419 6.77-14.419 15.121zM62.587 380.401c-15.912 0-28.791-13.495-28.791-30.197v-252.448c0-16.66 12.88-30.242 28.791-30.242h268.492c9.935 0 19.209 5.406 24.441 14.241l118.334 126.246c5.846 9.757 5.846 22.198 0 32l-118.334 126.202c-5.231 8.791-14.505 14.154-24.441 14.154h-268.492z" />
<glyph unicode="&#xe609;" d="M434.016 418.944l-178.016-178.016-178.016 178.016c-4.672 4.672-12.256 4.672-16.928 0-4.704-4.672-4.704-12.32 0-16.928l177.984-178.016-178.016-178.048c-4.704-4.64-4.704-12.256 0-16.928 4.672-4.672 12.256-4.672 16.928 0l178.048 177.984 178.048-178.016c4.64-4.672 12.256-4.672 16.928 0s4.672 12.32 0 16.928l-178.048 178.080 178.016 178.016c4.672 4.64 4.672 12.256 0 16.928-2.336 2.304-5.44 3.488-8.512 3.488s-6.080-1.152-8.416-3.488z" />
<glyph unicode="&#xe60a;" d="M273.969 210.634c75.425-8.49 134.686-69.935 139.938-146.245h-2.114c-1.091-18.856-8.013-33.45-27.687-33.45h-256.177c-19.641 0-26.528 14.628-27.619 33.45h-2.148c5.285 76.276 64.513 137.755 139.938 146.245 5.865-0.853 11.832-1.433 17.935-1.433 6.103-0.034 12.070 0.579 17.935 1.433zM155.855 331.749c0 55.273 44.907 100.247 100.179 100.247s100.18-44.975 100.18-100.247-44.941-100.214-100.18-100.214-100.18 44.941-100.18 100.214zM133.589 331.749c0-47.601 27.279-88.825 67.002-109.148-67.888-22.231-117.638-84.051-122.207-158.214h-0.614v-11.116c0-24.619 19.981-44.599 44.566-44.599h267.327c24.619 0 44.565 19.981 44.565 44.599v11.116h-0.579c-4.535 74.162-54.284 135.982-122.207 158.214 39.69 20.322 67.036 61.547 67.036 109.147 0 67.548-54.931 122.548-122.48 122.548-67.48 0-122.412-54.966-122.412-122.548z" />
<glyph unicode="&#xe60b;" d="M244.952 181.855c0 6.103 4.944 10.979 11.048 10.979s11.048-4.91 11.048-10.979c0-6.069-4.978-10.979-11.048-10.979s-11.048 4.91-11.048 10.979zM222.891 181.855c0-14.287 9.24-26.358 22.061-30.892v-23.971c0-6.103 4.944-11.014 11.048-11.014s11.048 4.944 11.048 11.014v23.971c12.786 4.501 22.027 16.606 22.027 30.892 0 18.208-14.798 32.938-33.075 32.938s-33.109-14.731-33.109-32.938zM102.117 62.342v162.407c0 18.891 14.662 34.166 32.7 34.166h242.368c18.038 0 32.734-15.31 32.734-34.166v-162.407c0-18.925-14.697-34.235-32.734-34.235h-242.368c-18.037 0-32.7 15.31-32.7 34.235zM246.010 445.635c-55.17 0-99.873-43.372-99.873-96.871v-67.82h21.924v65.809c0 42.793 33.791 79.516 77.948 79.516h19.947c44.123 0 77.913-36.723 77.913-79.516v-65.809l-219.761-0.137c-24.278 0-43.986-19.674-43.986-43.986v-186.788c0-24.312 19.709-43.986 43.986-43.986h263.746c24.277 0 43.952 19.675 43.952 43.986v186.787c0 24.278-19.675 43.986-43.952 43.986h-43.986v0.136h21.993v67.821c0 53.5-44.771 96.871-99.873 96.871h-19.982z" />
<glyph unicode="&#xe60c;" d="M245.969 36.642h19.957v19.993h-19.957v-19.993zM195.952 206.612h120.060v20.063h-120.060v-20.063zM195.952 246.667h120.060v19.957h-120.060v-19.957zM195.952 286.688h120.060v19.993h-120.060v-19.993zM175.96 376.653h160.009v-290.065h-160.009v290.065zM155.968 66.631h199.994v330.014h-199.994v-330.014zM145.971 36.642v359.37l10.559 10.666h200.029l9.397-10.701v-359.298l-9.996-9.996h-200.064l-9.925 9.961zM165.964 426.668c-22.069 0-39.984-17.916-39.984-39.985v-340.045c0-22.105 17.916-40.019 39.984-40.019h180.036c22.105 0 40.019 17.916 40.019 40.019v340.046c0 22.069-17.916 39.984-40.019 39.984h-180.036z" />
<glyph unicode="&#xe60d;" d="M5.319 224c0-138.484 112.234-250.68 250.68-250.68 138.406 0 250.68 112.196 250.68 250.68 0 138.445-112.274 250.68-250.68 250.68-138.445-0.038-250.68-112.274-250.68-250.68z" />
<glyph unicode="&#xe60e;" d="M406.577 302.831l-212.728-170.654-68.41 84.495c-3.425 5.983-11.071 8.042-17.028 4.617-5.957-3.475-8.018-11.12-4.567-17.103l75.336-93.084c0.446-1.937 1.216-3.774 2.607-5.387 2.805-3.152 6.875-4.369 10.798-3.872 2.109 0 4.244 0.348 6.206 1.464 1.762 1.017 3.078 2.532 4.12 4.171l220.249 176.661c5.138 4.567 5.659 12.461 1.067 17.649-2.482 2.78-5.883 4.196-9.358 4.196-2.954-0.024-5.908-1.067-8.291-3.153z" />
<glyph unicode="&#xe60f;" d="M89.836 224l150.563-150.563 11.586 11.587-138.999 138.977 138.999 138.977-11.586 11.587z" />
<glyph unicode="&#xe610;" d="M109.504 373.568c-16.768 0-30.368-13.632-30.368-30.4v-212.736c0-16.736 13.6-30.304 30.368-30.304h303.872c16.768 0 30.4 13.568 30.4 30.304v129.568c-5.152 0.352-10.272 0.896-15.232 1.92v-131.456c0-8.384-6.784-15.136-15.2-15.136h-303.84c-8.384 0-15.168 6.752-15.168 15.136v197.536l167.104-121.504 113.664 82.624c-3.104 2.784-6.016 5.728-8.8 8.832l-104.864-76.32-167.104 121.568c0 8.416 6.784 15.2 15.168 15.2h229.024c-0.672 4.992-1.12 10.016-1.12 15.2h-227.904zM405.792 373.568c0 25.152 20.416 45.568 45.6 45.568 25.152 0 45.568-20.416 45.568-45.568 0-25.184-20.416-45.568-45.568-45.568-25.216 0-45.6 20.416-45.6 45.568zM390.592 373.568c0-33.568 27.2-60.768 60.768-60.768 33.536 0 60.736 27.2 60.736 60.768 0 33.536-27.232 60.736-60.736 60.736-33.568 0.032-60.768-27.2-60.768-60.736z" />
<glyph unicode="&#xe611;" d="M428.384 327.968v-199.968c0-8.512-6.912-15.328-15.392-15.328h-307.616c-8.512 0-15.392 6.848-15.392 15.328v199.968l169.184-123.040 169.216 123.040zM89.984 343.328c0 8.512 6.912 15.36 15.392 15.36h307.584c8.512 0 15.392-6.88 15.392-15.36l-169.184-123.040-169.184 123.040zM105.376 374.112c-16.992 0-30.752-13.792-30.752-30.752v-215.36c0-16.96 13.76-30.752 30.752-30.752h307.584c16.992 0 30.784 13.792 30.784 30.752v215.328c0 16.96-13.792 30.752-30.784 30.752h-307.584z" />
<glyph unicode="&#xe612;" d="M433.171 71.853c3.413-1.2 5.7-2.588 6.976-3.938 1.163-1.387 1.762-3 1.762-4.613 0-1.988-0.712-3.75-2.1-5.363-1.387-1.575-3.637-2.7-6.638-3.339v17.252zM420.68 96.719c-0.901 1.125-1.313 2.476-1.313 4.089 0 1.463 0.413 2.813 1.313 3.901 0.863 1.125 2.438 2.137 4.763 2.851v-13.803c-2.288 0.75-3.901 1.8-4.763 2.962zM425.444 126.76v-5.401c-8.701-0.488-15.301-2.813-19.728-7.125-4.388-4.276-6.601-9.563-6.601-15.94 0-4.726 1.088-8.589 3.263-11.851 2.288-3.263 4.875-5.663 7.801-7.125 3.038-1.425 8.063-3.113 15.264-5.175v-18.978c-2.476 1.2-4.276 2.588-5.363 4.163-1.125 1.575-1.95 4.089-2.588 7.651l-21.49-2.476c0.712-3.601 1.651-6.675 2.925-9.188 1.238-2.55 3.038-4.913 5.401-7.014 2.363-2.213 5.214-3.901 8.401-5.25 3.301-1.2 7.501-2.063 12.752-2.476v-10.126h7.726v10.126c4.35 0.15 8.026 0.75 11.065 1.8 3 0.938 5.851 2.512 8.514 4.726 2.7 2.137 4.875 4.913 6.601 8.139 1.762 3.263 2.588 6.938 2.588 10.802 0 6.675-2.438 12.114-7.163 16.428-3.637 3.263-10.802 6.339-21.565 9.264v15.527c1.875-1.012 3.151-2.026 3.901-3 0.825-0.938 1.725-2.738 2.7-5.25l19.765 3.151c-1.313 5.663-3.976 10.202-8.252 13.502-4.163 3.339-10.24 5.214-18.152 5.663v5.401h-7.763zM107.1 125.11c0-12.565 10.163-22.69 22.691-22.69 12.565 0 22.69 10.163 22.69 22.69 0 12.49-10.163 22.654-22.69 22.654-12.489 0.037-22.691-10.163-22.691-22.654zM207.014 125.11c0-12.565 10.163-22.69 22.69-22.69s22.727 10.163 22.727 22.69c0 12.49-10.163 22.654-22.727 22.654-12.527 0.037-22.69-10.163-22.69-22.654zM352.459 75.19c0 40.094 32.517 72.685 72.685 72.685 40.094 0 72.685-32.592 72.685-72.685s-32.555-72.685-72.685-72.685c-40.13 0-72.685 32.592-72.685 72.685zM343.345 75.041c0-45.156 36.567-81.724 81.649-81.724 45.119 0 81.649 36.567 81.649 81.725 0 45.119-36.531 81.649-81.649 81.649-45.082 0-81.649-36.493-81.649-81.649zM107.1 224.948c0-12.527 10.163-22.691 22.691-22.691 12.565 0 22.69 10.163 22.69 22.69s-10.126 22.69-22.69 22.69c-12.489 0-22.691-10.163-22.691-22.69zM207.014 224.948c0-12.527 10.163-22.691 22.69-22.691s22.727 10.163 22.727 22.69-10.163 22.69-22.691 22.69c-12.565 0-22.727-10.163-22.727-22.69zM322.118 218.76l-18.115 12.114-6.075-12.114 24.192-18.19 42.231 42.456-12.077 6.076-30.154-30.341zM288.813 356.63c0 6.713 3.637 12.49 8.964 15.639v-3.188c0-10.314 1.387-12.49 8.139-12.49 6.714 0 10.126 2.176 10.126 12.49v3.188c5.363-3.151 9.001-8.964 9.001-15.639 0-10.052-8.139-18.19-18.115-18.19-10.051 0-18.115 8.177-18.115 18.19zM143.33 369.082v3.226c5.401-3.151 9.039-8.964 9.039-15.678 0-10.052-8.138-18.19-18.115-18.19-10.013 0-18.078 8.138-18.078 18.19 0 6.675 3.6 12.49 8.926 15.602v-3.15c0-10.314 1.388-12.49 8.101-12.49 6.714-0.037 10.126 2.138 10.126 12.49zM297.776 444.054v-32.78h-154.446v32.78c0 10.352-3.413 12.49-10.126 12.49s-8.1-2.176-8.1-12.49v-32.78h-58.246c-33.005 0-59.745-27.117-59.745-60.571l0.037-275.626c0-33.492 30.605-63.608 63.571-63.608h277.089c-4.538 5.589-8.476 11.701-11.74 18.115h-256.236c-30.229 0-54.533 23.629-54.533 54.533v218.093h399.58v-127.368c0 0 0.037 0 0.113 0 6.226 0 12.302-0.637 18.152-1.688v174.475c0 33.455-26.817 63.684-59.784 63.684h-67.322v32.741c0 10.351-3.413 12.49-10.126 12.49-6.752 0.037-8.139-2.137-8.139-12.49z" />
<glyph unicode="&#xe613;" d="M200.143 301.321l109.237-109.279-109.238-109.321 21.822-21.863 131.143 131.185-131.143 131.102z" />
<glyph unicode="&#xe614;" d="M219.931 275.087v-126.199c0-3.303 2.687-6.012 6.012-6.012s6.012 2.709 6.012 6.012v126.2c0 3.325-2.687 6.012-6.012 6.012s-6.012-2.687-6.012-6.012zM280.047 275.087v-126.199c0-3.303 2.687-6.012 5.991-6.012 3.325 0 6.012 2.709 6.012 6.012v126.2c0 3.325-2.687 6.012-6.012 6.012-3.303 0-5.991-2.687-5.991-6.012zM334.129 275.087v-144.214c0-6.627-5.417-12.043-12.022-12.043h-132.212c-6.627 0-12.023 5.417-12.023 12.043v144.214c0 3.325-2.687 6.012-6.012 6.012s-6.012-2.687-6.012-6.012v-144.214c0-13.253 10.792-24.047 24.047-24.047h132.212c13.253 0 24.025 10.772 24.025 24.047v144.214c0 3.325-2.709 6.012-5.99 6.012-3.344 0-6.012-2.687-6.012-6.012zM231.953 341.192c-1.601 0-3.139-0.636-4.268-1.744l-22.261-22.302h-57.612c-3.325 0-5.99-2.687-5.99-5.99 0-3.325 2.687-6.012 5.99-6.012h60.114c1.601 0 3.12 0.636 4.247 1.765l22.281 22.261h43.127l22.24-22.261c1.149-1.149 2.668-1.765 4.268-1.765h60.115c3.303 0 6.012 2.687 6.012 6.012s-2.709 5.99-6.012 5.99h-57.632l-22.302 22.281c-1.128 1.128-2.647 1.764-4.226 1.764h-48.091z" />
</font>
</defs>
</svg>
