<?xml version="1.0" encoding="utf-8"?>
<!-- Generator: Adobe Illustrator 18.0.0, SVG Export Plug-In . SVG Version: 6.00 Build 0)  -->
<!DOCTYPE svg PUBLIC "-//W3C//DTD SVG 1.1//EN" "http://www.w3.org/Graphics/SVG/1.1/DTD/svg11.dtd">
<svg version="1.1" id="图层_1" xmlns="http://www.w3.org/2000/svg" xmlns:xlink="http://www.w3.org/1999/xlink" x="0px" y="0px"
	 viewBox="0 0 213.4 20.9" enable-background="new 0 0 213.4 20.9" xml:space="preserve">
<g>
	<path d="M5.4,12.6l4.5,7.8h2.8L7.5,12c2.5-0.9,3.7-2.6,3.7-5.1c0-1.8-0.6-3.1-1.7-4C8.5,2,6.8,1.5,4.5,1.5H0v18.9h2.4v-7.8H5.4z
		 M2.4,3.6h2.1c1.6,0,2.7,0.3,3.4,0.8c0.7,0.6,1,1.4,1,2.6c0,1.2-0.3,2.1-1,2.7c-0.7,0.6-1.8,0.9-3.2,0.9H2.4V3.6z"/>
	<path d="M16.2,18.7c1.1,1.3,2.6,1.9,4.5,1.9s3.4-0.6,4.5-1.9s1.7-3.1,1.7-5.5c0-2.3-0.6-4.1-1.8-5.4c-1.2-1.3-2.7-2-4.4-2
		c-1.9,0-3.4,0.6-4.5,1.9c-1.1,1.3-1.7,3.1-1.7,5.4C14.5,15.6,15,17.5,16.2,18.7z M23.4,17.4c-0.6,0.9-1.5,1.4-2.8,1.4
		s-2.2-0.5-2.8-1.4c-0.6-0.9-0.9-2.3-0.9-4.1c0-1.8,0.3-3.1,0.9-4c0.6-0.9,1.5-1.3,2.8-1.3s2.2,0.4,2.8,1.3c0.6,0.9,0.9,2.2,0.9,4
		C24.4,15.1,24.1,16.5,23.4,17.4z"/>
	<path d="M40.3,20.4v-9.7c0-1.7-0.4-2.9-1.2-3.6C38.2,6.4,36.9,6,35.1,6c-1.5,0-3,0.4-4.5,1.2L31.4,9c1.3-0.7,2.5-1,3.7-1
		c1,0,1.7,0.3,2.1,0.8c0.4,0.5,0.7,1.3,0.7,2.3v0.8L35.5,12c-4,0.1-6,1.7-6,4.5c0,1.3,0.4,2.3,1.1,3c0.7,0.7,1.7,1.1,3,1.1
		c1.9,0,3.3-0.7,4.3-2.2h0.1l0.4,2H40.3z M37.9,14.8c0,1.3-0.3,2.3-1,3c-0.7,0.7-1.6,1-2.7,1c-0.8,0-1.3-0.2-1.7-0.6
		c-0.4-0.4-0.6-0.9-0.6-1.7c0-0.9,0.3-1.6,0.9-2.1c0.6-0.5,1.7-0.8,3.3-0.8l1.9-0.1V14.8z"/>
	<path d="M53.7,20.4h1.9V0.3h-2.3V6L53.4,8h-0.1c-1-1.4-2.4-2.1-4.1-2.1c-1.6,0-2.9,0.6-3.9,1.9c-1,1.2-1.5,3.1-1.5,5.6
		c0,2.4,0.5,4.2,1.5,5.4c1,1.2,2.3,1.8,3.9,1.8c1.8,0,3.2-0.7,4.1-2.1h0.1L53.7,20.4z M52.3,17.6c-0.6,0.8-1.5,1.1-2.7,1.1
		c-1.2,0-2-0.4-2.6-1.3c-0.6-0.9-0.8-2.2-0.8-4c0-1.9,0.3-3.2,0.8-4.1c0.6-0.9,1.4-1.3,2.5-1.3c1.2,0,2.2,0.4,2.8,1.2
		c0.6,0.8,0.9,2.2,0.9,4.3v0.5C53.3,15.6,53,16.9,52.3,17.6z"/>
	<path d="M63.9,20.6c2.1,0,3.6-0.5,4.7-1.4c1.1-1,1.7-2.2,1.7-3.8c0-1.2-0.3-2.2-0.9-2.9c-0.6-0.8-1.8-1.6-3.6-2.4
		c-1.8-0.8-3-1.4-3.4-1.9C62,7.7,61.7,7,61.7,6.1c0-0.8,0.3-1.5,0.8-2c0.6-0.5,1.4-0.7,2.5-0.7c1.3,0,2.7,0.3,4.1,0.9l0.8-2
		c-1.4-0.7-3.1-1-5-1c-1.8,0-3.2,0.4-4.2,1.3c-1,0.9-1.5,2-1.5,3.5c0,1.3,0.3,2.4,0.9,3.2s1.7,1.6,3.1,2.3c2.2,1,3.5,1.6,3.8,2
		c0.5,0.6,0.7,1.2,0.7,2.1c0,1-0.3,1.8-1,2.3c-0.7,0.5-1.7,0.7-3,0.7c-1.5,0-3.1-0.3-4.7-1v2.3C60.3,20.4,61.9,20.6,63.9,20.6
		L63.9,20.6z"/>
	<path d="M85,20.4v-9.3c0-1.7-0.4-3-1.2-3.9C83,6.4,81.8,6,80.2,6c-1.9,0-3.2,0.7-4,2.2h-0.1l0.1-1.9v-6h-2.4v20.1h2.4v-7.3
		c0-1.9,0.3-3.2,0.9-4c0.6-0.8,1.5-1.2,2.7-1.2c1,0,1.7,0.3,2.2,0.8c0.5,0.6,0.7,1.4,0.7,2.6v9.1H85z"/>
	<path d="M90.3,18.7c1.1,1.3,2.6,1.9,4.5,1.9c1.9,0,3.4-0.6,4.5-1.9c1.1-1.2,1.7-3.1,1.7-5.5c0-2.3-0.6-4.1-1.8-5.4
		c-1.2-1.3-2.7-2-4.4-2c-1.9,0-3.4,0.6-4.5,1.9c-1.1,1.3-1.7,3.1-1.7,5.4C88.6,15.6,89.2,17.5,90.3,18.7z M97.6,17.4
		c-0.6,0.9-1.5,1.4-2.8,1.4c-1.2,0-2.2-0.5-2.8-1.4c-0.6-0.9-0.9-2.3-0.9-4.1c0-1.8,0.3-3.1,0.9-4c0.6-0.9,1.5-1.3,2.8-1.3
		c1.2,0,2.2,0.4,2.8,1.3c0.6,0.9,0.9,2.2,0.9,4C98.5,15.1,98.2,16.5,97.6,17.4z"/>
	<path d="M118.2,20.4l3.6-14.1h-2.4l-1.8,7.5c-0.3,1.4-0.6,3-0.8,4.7h-0.1c-0.3-1.4-0.6-2.9-0.9-4.3l-2.3-8h-2.5l-2.4,8
		c-0.3,1-0.6,2.4-0.9,4.3h-0.1c-0.3-1.8-0.6-3.4-0.8-4.7l-1.8-7.5h-2.4l3.6,14.1h2.7l3.2-12h0.1c0.6,2.5,0.9,3.8,0.9,4l2.2,8H118.2z
		"/>
	<path d="M127.1,12.5h6.9v-2.2h-6.9V3.7h7.4V1.5h-9.8v18.9h2.4V12.5z"/>
	<path d="M139.6,1.3c-0.2-0.2-0.6-0.4-1.1-0.4c-0.4,0-0.7,0.1-1,0.4c-0.2,0.2-0.4,0.6-0.4,1.2c0,0.5,0.1,0.8,0.4,1.1
		c0.2,0.2,0.6,0.4,1,0.4c0.5,0,0.8-0.1,1.1-0.4c0.2-0.2,0.4-0.6,0.4-1.1C140,1.9,139.9,1.5,139.6,1.3z M139.8,6.3h-2.4v14.1h2.4V6.3
		z"/>
	<path d="M155.4,20.4v-9.3c0-1.7-0.4-3-1.2-3.9c-0.8-0.9-2-1.3-3.6-1.3c-1.9,0-3.2,0.7-4,2.2h-0.1l-0.4-1.9h-1.9v14.1h2.4v-7.3
		c0-1.9,0.3-3.2,0.9-4c0.6-0.8,1.5-1.2,2.7-1.2c1,0,1.7,0.3,2.2,0.8c0.5,0.6,0.7,1.4,0.7,2.6v9.1H155.4z"/>
	<path d="M169.5,20.4v-9.7c0-1.7-0.4-2.9-1.2-3.6c-0.8-0.8-2.1-1.1-3.9-1.1c-1.5,0-3,0.4-4.5,1.2l0.8,1.8c1.3-0.7,2.5-1,3.7-1
		c1,0,1.7,0.3,2.1,0.8c0.4,0.5,0.7,1.3,0.7,2.3v0.8l-2.4,0.1c-4,0.1-6,1.7-6,4.5c0,1.3,0.4,2.3,1.1,3c0.7,0.7,1.7,1.1,3,1.1
		c1.9,0,3.3-0.7,4.3-2.2h0.1l0.4,2H169.5z M167.2,14.8c0,1.3-0.3,2.3-1,3c-0.7,0.7-1.6,1-2.7,1c-0.8,0-1.3-0.2-1.7-0.6
		c-0.4-0.4-0.6-0.9-0.6-1.7c0-0.9,0.3-1.6,0.9-2.1c0.6-0.5,1.7-0.8,3.3-0.8l1.9-0.1V14.8z"/>
	<path d="M185,20.4v-9.3c0-1.7-0.4-3-1.2-3.9c-0.8-0.9-2-1.3-3.6-1.3c-1.9,0-3.2,0.7-4,2.2h-0.1l-0.4-1.9h-1.9v14.1h2.4v-7.3
		c0-1.9,0.3-3.2,0.9-4c0.6-0.8,1.5-1.2,2.7-1.2c1,0,1.7,0.3,2.2,0.8c0.5,0.6,0.7,1.4,0.7,2.6v9.1H185z"/>
	<path d="M194.9,6c-1.9,0-3.5,0.6-4.6,1.9c-1.1,1.2-1.7,3.1-1.7,5.6c0,2.4,0.6,4.2,1.7,5.4c1.1,1.2,2.6,1.8,4.5,1.8
		c1.4,0,2.5-0.2,3.5-0.7v-2.1c-1.2,0.6-2.3,0.8-3.5,0.8c-1.2,0-2.2-0.4-2.8-1.3c-0.6-0.9-0.9-2.2-0.9-3.9c0-1.8,0.3-3.1,0.9-4
		c0.6-0.9,1.6-1.3,2.9-1.3c0.8,0,1.8,0.2,2.9,0.7l0.7-2C197.4,6.3,196.2,6,194.9,6L194.9,6z"/>
	<path d="M212.3,12.4c0-2-0.5-3.6-1.5-4.7c-1-1.1-2.3-1.7-4-1.7c-1.7,0-3.1,0.7-4.2,2c-1.1,1.3-1.7,3.1-1.7,5.5
		c0,2.3,0.6,4.1,1.8,5.4c1.2,1.2,2.7,1.9,4.6,1.9c1.6,0,3-0.3,4.3-0.9v-2.1c-1.4,0.7-2.8,1-4.3,1c-1.3,0-2.3-0.4-2.9-1.2
		c-0.7-0.8-1-2-1-3.6h8.9V12.4z M206.7,7.9c1,0,1.8,0.3,2.3,1c0.5,0.7,0.8,1.6,0.8,2.9h-6.4C203.6,9.2,204.7,7.9,206.7,7.9
		L206.7,7.9z"/>
</g>
</svg>
