<?xml version="1.0" encoding="utf-8"?>
<!-- Generator: Adobe Illustrator 18.0.0, SVG Export Plug-In . SVG Version: 6.00 Build 0)  -->
<!DOCTYPE svg PUBLIC "-//W3C//DTD SVG 1.1//EN" "http://www.w3.org/Graphics/SVG/1.1/DTD/svg11.dtd">
<svg version="1.1" id="图层_1" xmlns="http://www.w3.org/2000/svg" xmlns:xlink="http://www.w3.org/1999/xlink" x="0px" y="0px"
	 viewBox="0 0 284.8 66.6" enable-background="new 0 0 284.8 66.6" xml:space="preserve">
<g>
	<path d="M46.1,17.4v-6.8h19.2c1.4,0,1.9-1.1,1.9-2.5c0-1.4-0.6-2.4-1.9-2.4H39V2.2c0-1.3-1.2-2.1-2.9-2.1c-1.6,0-2.8,0.8-2.8,2.1
		v3.5H12.9C8.5,5.7,6,8,6,12.9C6,21.2,5.9,32.9,5.3,41c-0.6,7.5-2,15-4.9,21C0.1,62.6,0,63.1,0,63.6c0,1.1,0.6,1.9,1.7,2.4
		c0.5,0.2,1.1,0.4,1.5,0.4c1.1,0,2.1-0.6,2.6-2c2.7-6.8,4.2-14,4.8-21.4c0.1-2.2,0.3-4.5,0.4-7h46.3c4.4,0,6.3-1.3,6.3-5.2v-8.1
		c0-3.9-1.9-5.2-6.3-5.2H46.1z M46.1,21.9h10.6c1.3,0,1.9,0.4,1.9,1.7v6.1c0,1.2-0.6,1.6-1.9,1.6H46.1V21.9z M41.1,31.3H28.8v-9.4
		h12.3V31.3z M41.1,17.4H28.8v-6.8h12.3V17.4z M23.7,31.3H11.2c0-0.9,0-1.7,0.1-2.5c0.1-2.3,0.1-4.5,0.1-6.8h12.4V31.3z M23.7,17.4
		H11.4c0-1.4,0-2.7,0-4c0-2.2,0.7-2.9,3.2-2.9h9.1V17.4z M23.1,49h12.5c1.2,0,1.8-0.9,1.8-2.4c0-1.3-0.6-2.3-1.8-2.3H23.1v-4.8
		c0-1.4-0.9-2.1-2.5-2.1c-1.5,0-2.6,0.7-2.6,2.1v20.6c-2,0.4-4,0.6-5.9,0.9c-1.2,0.1-2,1-2,2.3c0,0.1,0,0.4,0.1,0.6
		c0.2,1.6,1.1,2.3,2.2,2.3c0.2,0,0.4,0,0.6-0.1c7.6-1.3,16.1-3.2,22.7-5.4c1.2-0.5,1.9-1,1.9-2.2c0-0.3,0-0.6-0.1-0.9
		c-0.3-1.2-1-1.7-2-1.7c-0.2,0-0.6,0.1-0.9,0.1c-3.5,1.1-7.5,2.1-11.5,2.9V49z M46.3,50.9c6.6-1.7,13.5-4.1,18.1-6.4
		c1.1-0.6,1.6-1.3,1.6-2.2c0-0.5-0.1-1-0.5-1.5c-0.5-0.9-1.3-1.3-2.2-1.3c-0.4,0-0.9,0.1-1.4,0.4c-4,2.4-10.2,4.7-15.6,6.3v-6.8
		c0-1.3-1-2-2.6-2c-1.6,0-2.6,0.7-2.6,2v19.9c0,5,2.1,6.3,11.9,6.3c8.4,0,10.6-0.8,12.2-2.6c1.3-1.6,2.1-4.6,2.4-7.8
		c0-0.1,0-0.2,0-0.4c0-1.2-0.7-2-2.3-2.2c-0.2-0.1-0.4-0.1-0.6-0.1c-1.4,0-2.2,0.6-2.2,1.8c-0.1,1.5-0.4,3.7-1.1,4.7
		c-0.7,1.1-1.9,1.7-8,1.7c-6.3,0-7.1-0.6-7.1-2.9V50.9z"/>
	<path d="M95.3,40.3C94,50.1,89,56.5,77.3,61.2c-1.1,0.5-1.7,1.4-1.7,2.4c0,0.4,0.1,0.9,0.3,1.3c0.5,1.1,1.4,1.7,2.4,1.7
		c0.5,0,1-0.1,1.6-0.4C86.9,63.1,93,59.3,97,52.3c2.2-3.7,3.3-7.8,4-12h11.9c0.7,0,1,0.2,1,0.7c0,0.1-0.1,0.4-0.1,0.6
		c-0.4,1.1-1.2,2.9-1.9,4.4c-0.3,0.6-0.4,1.2-0.4,1.8c0,1.7,1.4,3.1,4,3.1h9.5c1.2,0,1.7,0.4,1.7,1.4c0,0.1,0,0.4-0.1,0.6
		c-0.4,2-0.8,3.9-1.4,5.3c-0.6,1.6-1.9,2.4-4.7,2.4c-2.1,0-5.1-0.4-7.4-1c-0.2-0.1-0.4-0.1-0.6-0.1c-1.1,0-2,0.6-2.4,2.1
		c-0.1,0.3-0.1,0.6-0.1,0.9c0,1.2,0.8,2.1,2.1,2.4c2.2,0.6,6,1,8.8,1c5,0,7.5-1.2,9.1-4.9c0.9-2.2,1.9-5.8,2.3-9.2
		c0.1-0.4,0.1-0.6,0.1-1c0-3-1.9-4.7-5.5-4.7h-8c-0.6,0-1-0.1-1-0.6c0-0.2,0.1-0.4,0.2-0.7c0.4-0.9,1.2-2.7,1.7-4.2
		c0.2-0.6,0.3-1.2,0.3-1.8c0-1.9-1.2-3.4-4.5-3.4h-28c-1.3,0-2,1.2-2,2.5c0,1.4,0.7,2.4,2,2.4H95.3z M98,20.3
		c-5.3,5.1-14,9.5-22.5,12.3c-1.3,0.4-1.9,1.2-1.9,2.2c0,0.4,0.1,0.7,0.2,1.1c0.4,1.1,1.2,1.7,2.4,1.7c0.4,0,0.8-0.1,1.2-0.2
		c9.3-2.9,21.2-9.9,26.7-16.9c-0.4,2.1-0.6,4.5-0.6,6.9v4.2c0,1.3,1,2,2.5,2c1.7,0,2.7-0.8,2.7-2v-4.5c0-2.4-0.2-4.6-0.6-6.7
		c6,7.3,18.7,14.1,28.1,16.5c0.4,0.1,0.7,0.1,1.1,0.1c1.4,0,2.2-0.9,2.4-1.8c0.1-0.4,0.1-0.7,0.1-1.1c0-1-0.5-1.9-1.9-2.3
		c-8.3-2.2-17.8-6.4-23.8-11.7h22.4c1.3,0,2-1,2-2.4s-0.7-2.5-2-2.5h-27.8V8.1c7.8-0.7,15.1-1.7,21-2.9c1.3-0.3,2.1-1.1,2.1-2.2
		c0-0.3-0.1-0.6-0.2-1.1c-0.4-1.2-1.2-1.9-2.3-1.9c-0.2,0-0.5,0.1-0.9,0.1c-12.2,3-29.6,4.5-45.3,4.5c-0.4,0-0.8,0-1.2,0
		c-1.2,0-2.1,0.9-2.1,2.3c0,0.1,0,0.1,0,0.1c0,1.7,1.1,2.4,2.2,2.4c6.8,0,14.2-0.3,21.4-0.9v6.8H76.3c-1.2,0-2,1.1-2,2.5
		s0.8,2.4,2,2.4H98z"/>
	<path d="M175.1,25.7v9.2h-24.5c-1.3,0-2.1,1-2.1,2.5c0,1.4,0.8,2.5,2.1,2.5h24.5v18.7h-26.6c-1.4,0-2.1,1.1-2.1,2.5
		c0,1.5,0.7,2.6,2.1,2.6h59.9c1.4,0,2.1-1.1,2.1-2.6c0-1.4-0.7-2.5-2.1-2.5h-27.8V39.9h25.7c1.3,0,2.1-1.1,2.1-2.5
		c0-1.5-0.8-2.5-2.1-2.5h-25.7v-9.2H192c1.3,0,2.2-0.9,2.2-2.4c0-1.5-0.9-2.5-2.2-2.5h-27.4c-1.3,0-2.1,1-2.1,2.5
		c0,1.4,0.8,2.4,2.1,2.4H175.1z M182.3,1.9c-1.1-1.2-2.6-1.8-4.2-1.8c-1.6,0-3.2,0.6-4.2,1.9c-7.3,8.7-17.1,15.9-27.6,20.1
		c-1.3,0.6-1.9,1.5-1.9,2.7c0,0.4,0.1,0.8,0.2,1.2c0.4,1.2,1.4,1.8,2.5,1.8c0.4,0,0.9-0.1,1.4-0.4c10.6-4.6,21.4-12.2,28.5-20.7
		c0.4-0.4,0.7-0.6,1.1-0.6c0.3,0,0.6,0.2,1,0.6c6.8,7.9,18.1,15.9,29.1,20.7c0.5,0.3,1,0.4,1.4,0.4c1.2,0,2.2-0.7,2.6-1.8
		c0.2-0.4,0.3-0.8,0.3-1.3c0-1.2-0.6-2.3-1.9-2.8C199.9,17.3,189.5,10.4,182.3,1.9z M198.1,42.2c-0.4-0.2-0.9-0.3-1.4-0.3
		c-0.9,0-1.7,0.5-2.2,1.6c-1.3,3.3-3.3,6.9-5.2,9.5c-0.3,0.4-0.5,1-0.5,1.6c0,0.7,0.4,1.4,1.2,1.9c0.5,0.3,1,0.4,1.5,0.4
		c0.9,0,1.7-0.4,2.4-1.4c1.9-2.5,3.9-6.3,5.5-9.9c0.2-0.4,0.3-0.9,0.3-1.3C199.8,43.4,199.2,42.6,198.1,42.2z M158.1,42.4
		c-0.8,0.4-1.4,1.2-1.4,2.1c0,0.4,0.1,0.9,0.4,1.3c1.7,2.8,3.5,6.3,4.4,8.9c0.4,1.2,1.4,1.7,2.5,1.7c0.4,0,0.8-0.1,1.2-0.2
		c1-0.4,1.7-1.2,1.7-2.3c0-0.4-0.1-0.9-0.3-1.4c-1-2.7-2.7-6-4.7-9.3c-0.5-0.8-1.4-1.2-2.3-1.2C159.1,42.1,158.6,42.2,158.1,42.4z"
		/>
	<path d="M232.6,51.9V62c0,1.1,1,1.7,2.3,1.7c1.3,0,2.3-0.6,2.3-1.7V51.9h5c1.1,0,1.6-1,1.6-2.2c0-1.2-0.5-2-1.6-2h-13.7
		c-1,0-1.6,0.9-1.6,2c0,1.2,0.6,2.2,1.6,2.2H232.6z M265.1,42.2v15.4c-3.5,0.6-6.9,1.2-9.9,1.6c-1.3,0.2-2.1,1.1-2.1,2.4
		c0,0.2,0,0.5,0.1,0.7c0.2,1.5,1.2,2.3,2.5,2.3c0.1,0,0.4,0,0.6-0.1c6.6-1.2,14.8-3.1,22.2-5.3c0.5,1.7,0.9,3.3,1.3,4.8
		c0.3,1.2,1.2,1.8,2.2,1.8c0.4,0,0.8-0.1,1.2-0.2c1.1-0.4,1.6-1.2,1.6-2.3c0-0.4-0.1-0.7-0.1-1.1c-1.2-5-3.2-10.9-5.4-15.5
		c-0.5-1.2-1.3-1.7-2.2-1.7c-0.4,0-0.6,0.1-1,0.2c-1,0.4-1.7,1.1-1.7,2c0,0.4,0.1,0.9,0.3,1.3c0.9,1.9,1.7,4.1,2.4,6.3
		c-2.3,0.6-4.6,1.2-6.9,1.7V42.2h5.8c3.7,0,5.5-1.4,5.5-5.5V18.4c0-4.2-1.9-5.6-5.5-5.6h-5.8V2.4c0-1.4-0.9-2-2.5-2s-2.5,0.6-2.5,2
		v10.4h-5c-3.7,0-5.6,1.5-5.6,5.5v18.4c0,4,1.9,5.5,5.6,5.5H265.1z M270.2,37.4V17.7h4.3c1.4,0,2.1,0.4,2.1,1.9v15.9
		c0,1.5-0.6,1.9-2.1,1.9H270.2z M265.1,37.4h-3.7c-1.4,0-2.1-0.4-2.1-1.9V19.6c0-1.5,0.6-1.9,2.1-1.9h3.7V37.4z M229.2,34.2
		c-0.1,5-1.3,7.1-4.1,9c-0.6,0.4-0.8,0.9-0.8,1.4c0,0.5,0.2,1,0.6,1.4c0.4,0.5,1,0.8,1.7,0.8c0.5,0,1.1-0.1,1.5-0.4
		c4-2.7,5.2-6,5.3-12.2h3.5v6.9c0,2.7,1.2,3.6,5.4,3.6c1.7,0,3.3-0.1,4.7-0.1v14.6c0,1.7-0.6,2.2-2,2.2c-1.1,0-2.3-0.1-3.2-0.3
		c-0.2-0.1-0.4-0.1-0.6-0.1c-1,0-1.7,0.6-1.8,1.8c-0.1,0.2-0.1,0.4-0.1,0.6c0,1.1,0.6,1.9,1.6,2.2c1.4,0.3,3.2,0.4,4.7,0.4
		c4.7,0,6.1-2.2,6.1-5.6V35.7c0-3.9-1.8-5.5-5.9-5.5h-21.4c-4.1,0-5.9,1.7-5.9,5.5v28.9c0,1.3,0.9,2,2.4,2c1.5,0,2.5-0.7,2.5-2V36.2
		c0-1.5,0.6-1.9,2-1.9H229.2z M241,34.2h3.8c1.4,0,2.1,0.4,2.1,1.9v4.7c-1.2,0.1-2.4,0.1-3.7,0.1c-1.7,0-2.2-0.3-2.2-1.4V34.2z
		 M250.6,7.6c1.2,0,1.9-1,1.9-2.3c0-1.4-0.6-2.4-1.9-2.4H220c-1.2,0-1.9,0.9-1.9,2.4c0,1.3,0.6,2.3,1.9,2.3H250.6z M226.4,11.3
		c-3.7,0-5.3,1.4-5.3,5v5c0,3.5,1.7,5,5.3,5h17.8c3.7,0,5.3-1.5,5.3-5v-5c0-3.6-1.7-5-5.3-5H226.4z M227.9,22.1
		c-1.3,0-1.9-0.4-1.9-1.7v-3.2c0-1.4,0.6-1.7,1.9-1.7h14.5c1.3,0,1.9,0.4,1.9,1.7v3.2c0,1.3-0.6,1.7-1.9,1.7H227.9z"/>
</g>
</svg>
