<?xml version="1.0" encoding="UTF-8" standalone="no"?>
<svg width="23px" height="24px" viewBox="0 0 23 24" version="1.1" xmlns="http://www.w3.org/2000/svg" xmlns:xlink="http://www.w3.org/1999/xlink" xmlns:sketch="http://www.bohemiancoding.com/sketch/ns">
    <!-- Generator: Sketch 3.3.2 (12043) - http://www.bohemiancoding.com/sketch -->
    <title>放大镜</title>
    <desc>Created with Sketch.</desc>
    <defs></defs>
    <g id="商品页面" stroke="none" stroke-width="1" fill="none" fill-rule="evenodd" sketch:type="MSPage">
        <g id="2商品列表-国家-热门" sketch:type="MSArtboardGroup" transform="translate(-1020.000000, -120.000000)" fill="#A4A4A4">
            <g id="头部" sketch:type="MSLayerGroup">
                <g id="搜索条" transform="translate(1010.000000, 114.000000)" sketch:type="MSShapeGroup">
                    <path d="M32.6590134,27.9086856 L32.6619781,27.9011636 L26.1261796,21.238143 C27.4128825,19.6555064 28.1525884,17.6907502 28.2133659,15.6868795 C28.3349207,13.2482351 27.418812,10.7283526 25.7674444,8.94863859 C24.3562218,7.39759452 22.3713195,6.35353575 20.3241574,6.08575122 C19.9268805,6.02858374 19.5192269,6 19.1145381,6 C17.0881292,6 15.1136035,6.68600979 13.5556257,7.93165916 C11.7486086,9.3352713 10.5019298,11.4429461 10.132818,13.713097 C9.76815337,15.8282938 10.1624656,18.0984447 11.2164353,19.9398394 C11.9368704,21.2185857 12.962675,22.3183075 14.182671,23.1171479 C15.3033477,23.8558119 16.591533,24.3387267 17.9078835,24.5117336 C18.3021957,24.5673967 18.7083669,24.5959804 19.1115733,24.5959804 C20.9808502,24.5959804 22.8293739,24.0002351 24.3339862,22.9170617 L30.8608905,29.5740646 L30.980963,29.689904 L30.9839278,29.6868952 C31.1988724,29.8674241 31.4716297,29.966715 31.7547636,29.966715 C32.4218331,29.966715 32.964383,29.4115886 32.964383,28.7285877 C32.9673477,28.4277062 32.8561695,28.1343467 32.6590134,27.9086856 M26.0342722,18.8220646 C24.9654786,21.0515965 22.8160325,22.6808697 20.4234766,23.0765289 C19.3027999,23.2751107 18.1228281,23.21343 17.0229046,22.8990088 C14.8764233,22.2987502 13.0397586,20.710096 12.1073437,18.646049 C11.0281735,16.353332 11.1630698,13.4678786 12.4512551,11.291001 C13.5971322,9.27960823 15.6176116,7.86696964 17.8530355,7.51343389 L18.0116498,7.48936337 C18.0946629,7.4758237 18.1791584,7.46228404 18.2606891,7.45175318 C18.5364112,7.42166503 18.8180627,7.40812537 19.0952672,7.40812537 C20.2366972,7.40812537 21.3647858,7.65936141 22.3594605,8.13475416 C24.1783366,8.98474437 25.628101,10.5643722 26.336677,12.4704564 C27.1134424,14.5044153 27.0007818,16.8783702 26.0342722,18.8220646" id="放大镜"></path>
                </g>
            </g>
        </g>
    </g>
</svg>