<?xml version="1.0" encoding="UTF-8" standalone="no"?>
<svg width="16px" height="16px" viewBox="0 0 16 16" version="1.1" xmlns="http://www.w3.org/2000/svg" xmlns:xlink="http://www.w3.org/1999/xlink" xmlns:sketch="http://www.bohemiancoding.com/sketch/ns">
    <!-- Generator: Sketch 3.3.2 (12043) - http://www.bohemiancoding.com/sketch -->
    <title>换</title>
    <desc>Created with Sketch.</desc>
    <defs></defs>
    <g id="首页" stroke="none" stroke-width="1" fill="none" fill-rule="evenodd" sketch:type="MSPage">
        <g id="1首页" sketch:type="MSArtboardGroup" transform="translate(-890.000000, -1538.000000)" fill="#FFFFFF">
            <g id="旅行组合" sketch:type="MSLayerGroup" transform="translate(0.000000, 1470.000000)">
                <g id="Rectangle-69-+-换" transform="translate(882.000000, 60.000000)" sketch:type="MSShapeGroup">
                    <g id="换" transform="translate(8.000000, 8.000000)">
                        <path d="M0.814002916,11.7831447 C0.814002916,11.7831447 2.26896247,14.028258 4.57111363,15.2329529 C6.87326479,16.4376478 9.70951505,16.0908417 11.5696532,14.9226527 C13.4297914,13.7544637 14.0559765,12.7688042 14.0559765,12.7688042 L15.6582737,13.6814519 C15.6582737,13.6814519 15.9897835,13.8457285 15.9897835,13.4624165 L15.9897835,7.73098911 C15.9897835,7.73098911 15.9897835,7.21990641 15.6030221,7.40243594 C15.2776452,7.55599804 11.7587611,9.55690504 10.6498978,10.1882017 C10.0410248,10.4598056 10.5759711,10.6804291 10.5759711,10.6804291 L12.1221695,11.5641093 C12.1221695,11.5641093 11.2402062,12.6686503 9.94939922,13.2536027 C8.56764807,13.9734991 7.27411538,14.05885 5.68949867,13.4606642 C4.65629322,13.0706168 3.43978129,12.0719795 2.5636378,10.5967028 L0.814002916,11.7831447 L0.814002916,11.7831447 Z M15.1794263,4.20842463 C15.1794263,4.20842463 13.7244667,1.96331138 11.4223156,0.758616455 C9.12016439,-0.446078466 6.28391413,-0.0992723478 4.42377598,1.06891666 C2.56363783,2.23710566 1.93745271,3.22276515 1.93745271,3.22276515 L0.335155492,2.31011748 C0.335155492,2.31011748 0.00364571429,2.14584089 0.00364571429,2.52915291 L0.00364571429,8.26058026 C0.00364571429,8.26058026 0.00364571429,8.77166297 0.390407109,8.58913343 C0.715783955,8.43557134 4.23466806,6.43466433 5.34353141,5.80336769 C5.95240436,5.53176375 5.41745809,5.3111403 5.41745809,5.3111403 L3.87125968,4.42746007 C3.87125968,4.42746007 4.753223,3.3229191 6.04402997,2.7379667 C7.42578111,2.01807023 8.7193138,1.93271941 10.3039305,2.53090519 C11.337136,2.92095254 12.5536479,3.91958989 13.4297914,5.39486659 L15.1794263,4.20842463 L15.1794263,4.20842463 Z" id="Shape" transform="translate(7.996715, 7.995785) scale(1, -1) translate(-7.996715, -7.995785) "></path>
                    </g>
                </g>
            </g>
        </g>
    </g>
</svg>