<?xml version="1.0" encoding="UTF-8" standalone="no"?>
<svg width="24px" height="25px" viewBox="0 0 24 25" version="1.1" xmlns="http://www.w3.org/2000/svg" xmlns:xlink="http://www.w3.org/1999/xlink" xmlns:sketch="http://www.bohemiancoding.com/sketch/ns">
    <!-- Generator: Sketch 3.3.2 (12043) - http://www.bohemiancoding.com/sketch -->
    <title>接送icon</title>
    <desc>Created with Sketch.</desc>
    <defs></defs>
    <g id="商品页面" stroke="none" stroke-width="1" fill="none" fill-rule="evenodd" sketch:type="MSPage">
        <g id="4商品列表-城市" sketch:type="MSArtboardGroup" transform="translate(-902.000000, -743.000000)" fill="#A4A4A4">
            <g id="环球影城" sketch:type="MSLayerGroup" transform="translate(450.000000, 571.374932)">
                <g id="接送" transform="translate(448.000000, 168.000000)" sketch:type="MSShapeGroup">
                    <path d="M27.5889561,17.8727136 C27.5889561,18.5369356 27.0584741,19.0748305 26.4056273,19.0748305 L26.3716527,19.0748305 L25.9250888,26.7893201 C25.9250888,27.4535659 25.7312859,27.9914371 25.0789073,27.9914371 L23.4030517,27.9914371 C22.7491746,27.9914371 22.4754576,27.4530426 22.4754576,26.7893201 L22.028402,19.0748305 L21.7846322,19.0748305 C21.1307551,19.0748305 20.6017717,18.5364361 20.6017717,17.8727136 L20.1087766,10.5418196 C20.1087766,9.87759762 20.6387434,9.33972646 21.2921054,9.33972646 L26.79424,9.33972646 C27.4480937,9.33972646 27.9775922,9.87809713 27.9775922,10.5418196 L27.5889561,17.8727136 L27.5889561,17.8727136 Z M24.1987746,8.77240833 C22.9015337,8.77240833 21.8500761,7.70425372 21.8500761,6.38646581 C21.8500761,5.06815461 22.9015337,4 24.1987746,4 C25.4960156,4 26.5479883,5.06815461 26.5479883,6.38646581 C26.5479883,7.70425372 25.4955005,8.77240833 24.1987746,8.77240833 L24.1987746,8.77240833 Z M20.1077698,23.8518057 C20.1077698,24.995552 19.1946693,24.8874688 18.0677698,24.8874688 L18.0677698,26.0855183 C18.0677698,26.7654866 17.3984156,27.3155362 16.7290615,27.3155362 C16.0602224,27.3155362 15.5182439,26.7654866 15.5182439,26.0855183 L15.5182439,24.8874688 L8.44266927,24.8874688 L8.44266927,26.1499544 C8.44266927,26.7944103 7.70588098,27.2835679 7.07249171,27.2835679 C6.43861073,27.2835679 5.82971317,26.793887 5.82971317,26.1499544 L5.82971317,24.8874688 C4.70281366,24.8874688 4,24.995552 4,23.8518057 L4,19.3838573 C4,18.2558335 4.68433951,16.6168167 5.78325854,16.5711477 L7.19836878,13.4458672 C7.76181854,12.3087096 8.81079415,11.418664 9.93769366,11.418664 L14.1525854,11.418664 C15.278478,11.418664 16.5702166,12.313776 17.1121951,13.4910367 L18.3354927,16.5990486 C19.3355317,16.8172607 20.1077698,18.2015302 20.1077698,19.2539386 L20.1077698,23.8518057 L20.1077698,23.8518057 Z M5.86167415,19.6259029 C5.86167415,20.4753459 6.53852098,21.1639247 7.37571122,21.1639247 C8.21137951,21.1639247 8.88923317,20.4753459 8.88923317,19.6259029 C8.88923317,18.7764599 8.21137951,18.0888801 7.37571122,18.0888801 C6.53901268,18.0888801 5.86167415,18.7764599 5.86167415,19.6259029 L5.86167415,19.6259029 Z M13.3483629,12.7247968 L10.6964683,12.7425649 C8.07800976,13.1896214 7.79729171,15.6257998 7.80928,16.4163726 L16.5307629,16.4194172 C16.5312546,15.7359049 16.3629268,13.1571298 13.3483629,12.7247968 L13.3483629,12.7247968 Z M16.7135844,18.0888801 C15.877401,18.0888801 15.1995707,18.7764599 15.1995707,19.6259029 C15.1995707,20.4753459 15.877401,21.1639247 16.7135844,21.1639247 C17.5497678,21.1639247 18.2271063,20.4753459 18.2271063,19.6259029 C18.2271063,18.7764599 17.5497678,18.0888801 16.7135844,18.0888801 L16.7135844,18.0888801 Z" id="接送icon"></path>
                </g>
            </g>
        </g>
    </g>
</svg>