<?xml version="1.0" encoding="UTF-8" standalone="no"?>
<svg width="16px" height="7px" viewBox="0 0 16 7" version="1.1" xmlns="http://www.w3.org/2000/svg" xmlns:xlink="http://www.w3.org/1999/xlink" xmlns:sketch="http://www.bohemiancoding.com/sketch/ns">
    <!-- Generator: Sketch 3.3.2 (12043) - http://www.bohemiancoding.com/sketch -->
    <title>折扣</title>
    <desc>Created with Sketch.</desc>
    <defs></defs>
    <g id="商品页面" stroke="none" stroke-width="1" fill="none" fill-rule="evenodd" sketch:type="MSPage">
        <g id="9商品详情" sketch:type="MSArtboardGroup" transform="translate(-1105.000000, -242.000000)" fill="#1BBC9B">
            <g id="价格" sketch:type="MSLayerGroup" transform="translate(1054.000000, 223.000000)">
                <g id="￥632-+-折扣" transform="translate(0.000000, 19.000000)" sketch:type="MSShapeGroup">
                    <g id="折扣" transform="translate(51.000000, 0.000000)">
                        <path d="M0.81716263,6.69965226 C0.304373702,6.65520324 0.0346435986,6.37986145 0.00791695502,5.87368454 L0,0.692491165 C0.0106851211,0.59237998 0.0373979239,0.500613797 0.0801245675,0.417178201 C0.122851211,0.333742606 0.178934256,0.261491329 0.248401384,0.200237005 C0.31784083,0.139083571 0.391266436,0.0903971932 0.468733564,0.0542211102 C0.54615917,0.0181026783 0.622283737,-1.41887532e-05 0.697093426,2.24028873e-07 C1.8935917,-2.86015353e-05 8.40754325,0.00272423984 9.35301038,0.00828757372 L10.5468097,0.0166181618 C10.9367336,0.0110260023 11.2852457,0.00962796246 11.5923875,0.012438455 C11.8995433,0.015148058 12.1492595,0.0165749234 12.3415502,0.0165316851 L12.6460346,0.0165749234 C12.6673772,0.0165749234 12.7075017,0.0221526701 12.7661869,0.0332360995 C12.8249412,0.0444060056 12.8957232,0.0652180629 12.9785329,0.0957875737 C13.0613287,0.126443561 13.1481384,0.1667417 13.2389343,0.216797292 C13.3297439,0.266867297 13.4151834,0.333598478 13.4952941,0.417019661 L13.6395294,0.567229676 C13.7142976,0.645073112 13.8064221,0.743786256 13.9159585,0.863369109 C14.0254118,0.982980787 14.1456055,1.11369031 14.2764706,1.25549767 C14.4073633,1.39734827 14.5421869,1.5405825 14.6810519,1.68520036 C15.0015779,2.03004058 15.3567612,2.4110713 15.7466851,2.82817721 C15.8001246,2.9060783 15.8521799,2.98530536 15.9028927,3.0659737 C15.9536747,3.14662763 15.9817163,3.24534078 15.9870311,3.36217079 C15.9870311,3.47339423 15.9630173,3.57353424 15.9149343,3.66254758 C15.8668789,3.75151768 15.8161107,3.82379779 15.7626574,3.87944554 L13.3269204,6.41585017 C13.3215917,6.43254017 13.2855225,6.47288155 13.218782,6.53683106 C13.1518062,6.60063645 13.1050519,6.63538566 13.0785606,6.64113636 C13.0356401,6.66317351 12.980872,6.68126155 12.9142976,6.69537166 C12.8473495,6.70909263 12.7872526,6.71601077 12.7340208,6.71622696 L0.81716263,6.69965226 L0.81716263,6.69965226 Z M13.4872249,2.84491045 C13.348346,2.98954272 13.2789204,3.16191959 13.2789204,3.36219961 C13.2788789,3.5624364 13.3483599,3.73482768 13.4872388,3.87944554 C13.6261176,4.02406339 13.7916401,4.09638673 13.9839585,4.09637232 C14.1763045,4.09638673 14.3418131,4.02406339 14.4807059,3.87943113 C14.6195848,3.73481327 14.6904083,3.56100953 14.6930657,3.35796226 C14.695737,3.1549294 14.6276678,2.98114007 14.4887751,2.83652221 C14.34991,2.69190436 14.1829758,2.62097906 13.9880277,2.62378955 C13.7930242,2.6265568 13.6261038,2.7002926 13.4872249,2.84491045 L13.4872249,2.84491045 Z" id="Imported-Layers"></path>
                    </g>
                </g>
            </g>
        </g>
    </g>
</svg>