<?xml version="1.0" encoding="UTF-8" standalone="no"?>
<svg width="27px" height="32px" viewBox="0 0 27 32" version="1.1" xmlns="http://www.w3.org/2000/svg" xmlns:xlink="http://www.w3.org/1999/xlink" xmlns:sketch="http://www.bohemiancoding.com/sketch/ns">
    <!-- Generator: Sketch 3.3.2 (12043) - http://www.bohemiancoding.com/sketch -->
    <title>Shape</title>
    <desc>Created with Sketch.</desc>
    <defs></defs>
    <g id="商品页面" stroke="none" stroke-width="1" fill="none" fill-rule="evenodd" sketch:type="MSPage">
        <g id="11POI-地图遮罩" sketch:type="MSArtboardGroup" transform="translate(-290.000000, -470.000000)" fill="#F76570">
            <g id="地图-+-地图坐标-+-位置名称" sketch:type="MSLayerGroup" transform="translate(270.000000, 450.000000)">
                <path d="M43.105969,48.0558353 L42.9822418,48.1763062 C40.5446593,50.5392995 37.1964162,52 33.4997773,52 C29.8074433,52 26.4613897,50.5424698 24.0244381,48.1832663 L23.8869799,48.0488753 C21.4848753,45.6548715 20,42.3708917 20,38.7442294 C20,35.1143968 21.4870649,31.8271738 23.8940681,29.4331336 L24.0173129,29.3126263 L33.5002598,20 L42.9898124,29.3174363 L43.0994004,29.4261371 C45.5102261,31.8211976 47,35.1105341 47,38.7441565 C47.0000371,42.3735518 45.5130093,45.6607383 43.105969,48.0558353 L43.105969,48.0558353 Z M33.5002968,34.9772728 C30.8915596,34.9772728 28.7768035,37.0543207 28.7768035,39.6154023 C28.7768035,40.674023 29.1367036,41.6479934 29.7431303,42.428139 C30.6063264,43.5381402 31.967994,44.2545886 33.5002968,44.2545886 C36.1090712,44.2545886 38.2237901,42.176994 38.2237901,39.6153658 C38.2237902,37.0543207 36.1090712,34.9772728 33.5002968,34.9772728 L33.5002968,34.9772728 Z" id="Shape" sketch:type="MSShapeGroup" transform="translate(33.500000, 36.000000) scale(1, -1) translate(-33.500000, -36.000000) "></path>
            </g>
        </g>
    </g>
</svg>