<?xml version="1.0" encoding="UTF-8" standalone="no"?>
<svg width="21px" height="25px" viewBox="0 0 21 25" version="1.1" xmlns="http://www.w3.org/2000/svg" xmlns:xlink="http://www.w3.org/1999/xlink" xmlns:sketch="http://www.bohemiancoding.com/sketch/ns">
    <!-- Generator: Sketch 3.3.2 (12043) - http://www.bohemiancoding.com/sketch -->
    <title>玩具熊icon</title>
    <desc>Created with Sketch.</desc>
    <defs></defs>
    <g id="商品页面" stroke="none" stroke-width="1" fill="none" fill-rule="evenodd" sketch:type="MSPage">
        <g id="4商品列表-城市" sketch:type="MSArtboardGroup" transform="translate(-800.000000, -743.000000)" fill="#A4A4A4">
            <g id="环球影城" sketch:type="MSLayerGroup" transform="translate(450.000000, 571.374932)">
                <g id="亲子" transform="translate(344.000000, 168.000000)" sketch:type="MSShapeGroup">
                    <path d="M24.1527403,13.6627989 C24.5550966,13.4781511 24.9425761,13.4242975 25.3151333,13.5012379 C25.6877133,13.5781784 26.0043914,13.739716 26.2651906,13.9859209 C26.5259897,14.2321023 26.7197295,14.5359775 26.8463871,14.8975696 C26.9730675,15.2591618 27.0028666,15.6399775 26.9358072,16.0400165 C26.8687478,16.4400789 26.6899076,16.8285979 26.3993094,17.2055501 C26.1087111,17.5825257 25.6802521,17.9095111 25.1139552,18.1864594 C24.7264757,18.3711072 24.368818,18.5365082 24.0409595,18.6826857 C23.7131009,18.8288399 23.4150416,18.963474 23.146804,19.0865882 C23.1617035,19.2250623 23.1728839,19.3596965 23.1803223,19.4904672 C23.1877835,19.6212614 23.1915027,19.7558955 23.1915027,19.8943696 C23.1915027,20.3251989 23.1542651,20.7252614 23.0797446,21.0945336 C23.0052241,21.4638057 22.9083655,21.8100145 22.7891463,22.1331365 C23.1915027,22.2562272 23.6162424,22.3716145 24.0633202,22.4793218 C24.4954984,22.5870292 24.8345372,22.8255306 25.0804141,23.1948028 C25.3263137,23.564075 25.4827932,23.9795209 25.5498526,24.441117 C25.616912,24.9027131 25.5982932,25.3796926 25.4939735,25.8720789 C25.3896539,26.3644418 25.2033752,26.7875677 24.9351377,27.1414799 C24.6668774,27.4953687 24.3166582,27.7453901 23.88448,27.8915677 C23.4523018,28.0377453 22.9381647,27.995435 22.3420686,27.764637 C20.7176755,27.1799267 19.4844811,26.664477 18.6424627,26.2182643 C17.800467,25.7720516 17.3049487,25.5028067 17.1559303,25.4104828 C17.0814098,25.4104828 17.0143504,25.4143228 16.9547521,25.4220262 C16.8951312,25.4297062 16.8280718,25.4335462 16.7535513,25.4335462 C16.5896333,25.4335462 16.4368731,25.4297062 16.2952932,25.4220262 C16.1537359,25.4143228 16.0009757,25.4027794 15.8370578,25.387396 C15.4793774,25.5874272 15.0546603,25.8182253 14.5628612,26.0797901 C14.130683,26.2952048 13.5867467,26.5490896 12.9310297,26.8414214 C12.2753126,27.1337765 11.5003763,27.441515 10.6062208,27.764637 C10.010102,27.995435 9.49596488,28.0377453 9.0637867,27.8915677 C8.63160851,27.7453901 8.28138929,27.4953687 8.01315171,27.1414799 C7.74489145,26.7875677 7.55861283,26.3644418 7.45429317,25.8720789 C7.34997352,25.3796926 7.33507395,24.9027131 7.40959447,24.441117 C7.48409231,23.9795209 7.64431369,23.564075 7.89019058,23.1948028 C8.13609015,22.8255306 8.47512903,22.5870292 8.90730721,22.4793218 C9.22026618,22.4023814 9.52576402,22.3216009 9.82382341,22.2369804 C10.1218828,22.1523599 10.4124811,22.0715794 10.6956182,21.9946389 C10.576399,21.6869238 10.4869789,21.3599384 10.4273806,21.0137531 C10.3677597,20.6675443 10.3379606,20.2944321 10.3379606,19.8943696 C10.3379606,19.7712789 10.3416798,19.6597316 10.3491409,19.5597043 C10.3565794,19.4597004 10.3677597,19.3481531 10.3826819,19.2250623 C9.71204263,18.963474 8.87004695,18.5865218 7.85667222,18.0941355 C7.29037525,17.8171872 6.86191628,17.4902253 6.57131801,17.1132496 C6.28071974,16.736274 6.10187957,16.347755 6.03482017,15.947716 C5.96776078,15.5476536 5.99755991,15.1668379 6.12424026,14.8052457 C6.25089793,14.4436536 6.44463767,14.1397784 6.7054368,13.893597 C6.96623594,13.6474155 7.2791949,13.4858545 7.64431369,13.408914 C8.00940981,13.3319736 8.39317006,13.3858272 8.79552644,13.570475 C8.89984609,13.6012418 9.00044652,13.6397121 9.09730505,13.6858623 C9.19418626,13.732036 9.2947867,13.7781862 9.39910635,13.8243599 C9.6822435,14.4090467 10.0585426,14.9475833 10.5279811,15.4399462 C10.9973968,15.9323092 11.5338947,16.3554584 12.1374519,16.7093472 C12.7410092,17.063236 13.3967262,17.3401843 14.1046031,17.5402155 C14.81248,17.7402467 15.5613364,17.8402506 16.3511949,17.8402506 C17.1112316,17.8402506 17.8377273,17.7479501 18.5307046,17.5633023 C19.2236819,17.3786545 19.8644994,17.1209296 20.4531571,16.7901277 C21.0417921,16.4593023 21.5708515,16.0592633 22.0402899,15.5899638 C22.5097057,15.1206643 22.893466,14.6090779 23.1915027,14.0551579 C23.3554433,13.9782175 23.515642,13.9128204 23.6721215,13.8589667 C23.8286009,13.8051131 23.9887997,13.7397394 24.1527403,13.6627989 L24.1527403,13.6627989 Z M16.4853137,16.3862253 C15.6209573,16.3862253 14.8087608,16.2515911 14.0487241,15.9823228 C13.2886873,15.7130545 12.6217899,15.3476223 12.0480318,14.8860262 C11.4742964,14.4244301 11.0234768,13.8858936 10.6956182,13.2704399 C10.3677597,12.6549628 10.2038418,11.9933589 10.2038418,11.2855579 C10.2038418,10.7470214 10.3044195,10.2277316 10.5056204,9.72766526 C10.7067986,9.22759892 10.9862165,8.76984282 11.3438968,8.35442038 C11.0905362,8.07744867 10.889358,7.73510331 10.7403396,7.32736087 C10.5912986,6.91961843 10.5242392,6.50801257 10.5391387,6.09256672 C10.5540383,5.67714428 10.6658191,5.29246526 10.8744584,4.93857648 C11.0830977,4.5846877 11.4109562,4.32312282 11.858034,4.15385843 C12.260413,4.00000087 12.6441506,3.96153062 13.0092694,4.03847111 C13.3743655,4.1154116 13.6985048,4.26542916 13.9816647,4.48852379 C14.2648245,4.71161843 14.499521,4.98859014 14.6858223,5.31939209 C14.8721009,5.65021745 14.9950394,5.98488282 15.0546603,6.32338818 C15.5017381,6.23106428 15.978615,6.18489062 16.4853137,6.18489062 C16.8727705,6.18489062 17.2453504,6.20797745 17.6030081,6.2541277 C17.9606657,6.30030136 18.310885,6.37721843 18.6536431,6.48492575 C18.6536431,6.45415892 18.6573623,6.42723209 18.6648234,6.40414526 C18.6722845,6.38108184 18.6760038,6.35415501 18.6760038,6.32338818 C18.7207025,5.98488282 18.8399217,5.65021745 19.0336614,5.31939209 C19.2274012,4.98859014 19.4658396,4.71161843 19.7489994,4.48852379 C20.0321366,4.26542916 20.3562759,4.1154116 20.7213947,4.03847111 C21.0865135,3.96153062 21.4702511,4.00000087 21.8726301,4.15385843 C22.3197079,4.32312282 22.6475664,4.5846877 22.8562057,4.93857648 C23.064845,5.29246526 23.1728839,5.67714428 23.1803223,6.09256672 C23.1877835,6.50801257 23.1170048,6.91961843 22.9679638,7.32736087 C22.8189454,7.73510331 22.6252057,8.07744867 22.3867673,8.35442038 L22.1632284,8.58521843 C22.0887079,8.6621355 22.0216485,8.72369257 21.9620502,8.76984282 C22.4985254,9.53917745 22.7667856,10.3777492 22.7667856,11.2855579 C22.7667856,11.9933589 22.602845,12.6549628 22.2749865,13.2704399 C21.9471279,13.8858936 21.496331,14.4244301 20.9225729,14.8860262 C20.3488375,15.3476223 19.68194,15.7130545 18.9219033,15.9823228 C18.1618666,16.2515911 17.3496701,16.3862253 16.4853137,16.3862253 L16.4853137,16.3862253 Z M16.4853137,11.7240906 C16.3362727,11.7240906 16.176074,11.7279306 16.0046949,11.7356106 C15.8333159,11.743314 15.6768364,11.7664009 15.5352565,11.8048711 C15.3936992,11.8433179 15.2781992,11.904875 15.1887791,11.9894955 C15.099359,12.0741394 15.0546603,12.1933667 15.0546603,12.3472477 C15.0546603,12.5011053 15.0807403,12.6703696 15.1329001,12.854994 C15.1850599,13.0396418 15.2707381,13.2127462 15.3899573,13.3743072 C15.5091765,13.5358448 15.6582176,13.6704789 15.8370351,13.7781862 C16.0158752,13.8858936 16.231953,13.9397472 16.4853137,13.9397472 C16.7088526,13.9397472 16.9137727,13.8858936 17.1000513,13.7781862 C17.2863299,13.6704789 17.4390902,13.5358448 17.5583094,13.3743072 C17.6775286,13.2127462 17.7706679,13.0396418 17.8377273,12.854994 C17.9047867,12.6703696 17.9383277,12.5011053 17.9383277,12.3472477 C17.9383277,12.1933667 17.8898871,12.0741394 17.7930286,11.9894955 C17.6961474,11.904875 17.5732089,11.8433179 17.4241679,11.8048711 C17.2751495,11.7664009 17.1186701,11.743314 16.9547521,11.7356106 C16.7908115,11.7279306 16.6343321,11.7240906 16.4853137,11.7240906 L16.4853137,11.7240906 Z" id="玩具熊icon"></path>
                </g>
            </g>
        </g>
    </g>
</svg>