<?xml version="1.0" encoding="UTF-8" standalone="no"?>
<svg width="24px" height="25px" viewBox="0 0 24 25" version="1.1" xmlns="http://www.w3.org/2000/svg" xmlns:xlink="http://www.w3.org/1999/xlink" xmlns:sketch="http://www.bohemiancoding.com/sketch/ns">
    <!-- Generator: Sketch 3.3.2 (12043) - http://www.bohemiancoding.com/sketch -->
    <title>经典icon</title>
    <desc>Created with Sketch.</desc>
    <defs></defs>
    <g id="商品页面" stroke="none" stroke-width="1" fill="none" fill-rule="evenodd" sketch:type="MSPage">
        <g id="4商品列表-城市" sketch:type="MSArtboardGroup" transform="translate(-694.000000, -743.000000)" fill="#A4A4A4">
            <g id="环球影城" sketch:type="MSLayerGroup" transform="translate(450.000000, 571.374932)">
                <g id="经典" transform="translate(240.000000, 168.000000)" sketch:type="MSShapeGroup">
                    <path d="M15.9896339,4 C9.36839286,4 4,9.36839286 4,15.9896339 C4,22.610875 9.36836607,27.9792946 15.9896339,27.9792946 C22.6109018,27.9792946 27.9792946,22.6109018 27.9792946,15.9896339 C27.9792946,9.36841964 22.610875,4 15.9896339,4 L15.9896339,4 Z M15.9896339,23.9827321 C11.5754554,23.9827321 7.99653571,20.4037321 7.99653571,15.9896339 C7.99653571,11.5754554 11.5754554,7.9965625 15.9896339,7.9965625 C20.4037321,7.9965625 23.9827054,11.5754554 23.9827054,15.9896339 C23.9827054,20.4037321 20.4037321,23.9827321 15.9896339,23.9827321 L15.9896339,23.9827321 Z M15.9896339,9.99483036 L13.9913661,13.9913929 L9.99480357,13.9913929 L13.4195446,16.8462946 L11.9930714,21.9844911 L15.9896071,18.5596696 L19.9861696,21.9844911 L18.5596161,16.8462946 L21.9844375,13.9913929 L17.9879018,13.9913929 L15.9896339,9.99483036 L15.9896339,9.99483036 Z" id="经典icon"></path>
                </g>
            </g>
        </g>
    </g>
</svg>