<?xml version="1.0" encoding="UTF-8" standalone="no"?>
<svg width="76px" height="88px" viewBox="0 0 76 88" version="1.1" xmlns="http://www.w3.org/2000/svg" xmlns:xlink="http://www.w3.org/1999/xlink" xmlns:sketch="http://www.bohemiancoding.com/sketch/ns">
    <!-- Generator: Sketch 3.3.2 (12043) - http://www.bohemiancoding.com/sketch -->
    <title>购物</title>
    <desc>Created with Sketch.</desc>
    <defs></defs>
    <g id="首页" stroke="none" stroke-width="1" fill="none" fill-rule="evenodd" sketch:type="MSPage">
        <g id="1首页" sketch:type="MSArtboardGroup" transform="translate(-1082.000000, -1858.000000)" fill="#FFFFFF">
            <g id="旅行组合" sketch:type="MSLayerGroup" transform="translate(0.000000, 1470.000000)">
                <g id="日程描述" transform="translate(930.000000, 288.000000)" sketch:type="MSShapeGroup">
                    <g id="购物" transform="translate(152.000000, 100.000000)">
                        <path d="M62.5619907,69.5590803 L62.5619907,87.9143559 L13.4404427,87.9143559 L13.4404427,69.5590803 L0.0271730696,69.5590803 L0.0271730696,9.96014534 C0.0271730696,4.48117607 4.45049533,0.0399678357 9.90748226,0.0399678357 L66.0954925,0.0399678357 C71.5522629,0.0399678357 75.9754769,4.48117607 75.9754769,9.96014534 L75.9754769,69.5590803 L62.5619907,69.5590803 L62.5619907,69.5590803 Z M22.5097861,78.809531 L53.4927556,78.809531 L53.4927556,69.5590803 L22.5097861,69.5590803 L22.5097861,78.809531 L22.5097861,78.809531 Z M38.0012166,17.6928896 C38.0012166,17.6928896 18.2786172,26.1938946 18.2786172,42.0571083 C18.2786172,47.7397797 22.0937422,51.9060498 27.7520895,51.9060498 C32.4288725,51.9060498 35.4681261,47.1992565 36.9461051,44.1530766 C37.1380421,43.7566567 37.5394631,43.5059714 37.9770619,43.5113005 C38.4161771,43.5140195 38.8133738,43.7715565 38.9972953,44.1704778 C40.4068184,47.2193766 43.3680841,51.9060498 48.2504518,51.9060498 C53.9113988,51.9060498 57.7238158,47.7397797 57.7238158,42.0571083 C57.7239243,26.1938946 38.0012166,17.6928896 38.0012166,17.6928896 L38.0012166,17.6928896 Z" id="Shape" transform="translate(38.001325, 43.977162) scale(1, -1) translate(-38.001325, -43.977162) "></path>
                    </g>
                </g>
            </g>
        </g>
    </g>
</svg>