<?xml version="1.0" encoding="UTF-8" standalone="no"?>
<svg width="20px" height="25px" viewBox="0 0 20 25" version="1.1" xmlns="http://www.w3.org/2000/svg" xmlns:xlink="http://www.w3.org/1999/xlink" xmlns:sketch="http://www.bohemiancoding.com/sketch/ns">
    <!-- Generator: Sketch 3.3.2 (12043) - http://www.bohemiancoding.com/sketch -->
    <title>快速通道</title>
    <desc>Created with Sketch.</desc>
    <defs></defs>
    <g id="商品页面" stroke="none" stroke-width="1" fill="none" fill-rule="evenodd" sketch:type="MSPage">
        <g id="4商品列表-城市" sketch:type="MSArtboardGroup" transform="translate(-748.000000, -743.000000)" fill="#A4A4A4">
            <g id="环球影城" sketch:type="MSLayerGroup" transform="translate(450.000000, 571.374932)">
                <g id="快速通道" transform="translate(292.000000, 168.000000)" sketch:type="MSShapeGroup">
                    <g transform="translate(6.000000, 4.000000)">
                        <path d="M0.741320388,11.9889792 C1.33137864,11.9690112 1.92376699,11.9837568 2.51467961,11.9837568 L2.51467961,11.98752 C3.04648544,11.98752 3.58062136,12.0140928 4.10959223,11.9764992 C4.37662136,11.9572992 4.82776699,12.1830144 4.84062136,11.6312448 C4.84951456,11.227776 4.74054369,10.8183168 4.27965049,10.7637504 C3.04866019,10.6185216 1.80733981,10.605888 0.577242718,10.7748096 C0.28038835,10.8153984 -0.0620970874,11.0566272 0.043961165,11.4527232 C0.125980583,11.763264 0.33623301,12.0022656 0.741320388,11.9889792" id="Fill-1"></path>
                        <path d="M1.01801942,9.4877184 C1.96256311,9.4839936 2.91592233,9.4109568 3.84998058,9.5097984 C4.99739806,9.6322176 5.83728155,9.2502144 6.59079612,8.1762048 C4.63619417,8.1762048 2.81739806,8.1850368 0.998796117,8.1702912 C0.504893204,8.165952 0.0393398058,8.2447872 0.0594951456,8.8032 C0.0780970874,9.3091968 0.518330097,9.4891776 1.01801942,9.4877184" id="Fill-2"></path>
                        <path d="M6.84582524,14.7064704 C7.1158835,14.7042816 7.51060194,14.6637312 7.15464078,14.2963584 C6.72963107,13.8574464 6.34827184,13.3461888 5.56419417,13.3764864 C4.06170874,13.4355072 2.55561165,13.4082432 1.05095146,13.3838592 C0.515300971,13.3749504 0.0253203883,13.4959872 0.0454368932,14.058816 C0.0646601942,14.6016768 0.567495146,14.7329664 1.09339806,14.7211776 C2.00730097,14.7005568 2.92256311,14.7153024 3.83720388,14.7153024 L3.83720388,14.7094272 C4.84058252,14.7094656 5.84333981,14.7146112 6.84582524,14.7064704" id="Fill-3"></path>
                        <path d="M12.643767,17.908608 C11.9530485,18.413184 10.9816699,18.12768 10.1909126,18.5732352 C9.94780583,18.7104768 9.74551456,18.8830464 9.61499029,19.0792704 C8.92947573,20.108352 8.29914563,21.1726848 7.61712621,22.2046464 C7.21502913,22.8139776 7.36959223,23.348736 7.87669903,23.722752 C8.4184466,24.1210752 9.07712621,24.114432 9.5121165,23.5339008 C10.7384854,21.9000576 11.9253592,20.2372992 13.116,18.5784192 C13.4464078,18.1181568 13.1554175,17.9697792 12.643767,17.908608" id="Fill-4"></path>
                        <path d="M19.8858641,9.1003776 C19.4441553,8.1008256 18.5938252,8.5744128 17.882835,8.5338624 C17.2130485,8.4954624 16.5258641,9.2493312 15.9583301,8.7522048 C15.4680777,8.3228928 15.1816311,7.607424 14.9577087,6.967104 C14.668466,6.1402368 13.9969709,5.5575168 13.462835,4.695168 C15.3554951,5.4165888 16.4946408,4.7446656 17.0474175,3.8572416 C17.6838058,2.8356096 17.5090097,1.4953728 16.6453592,0.70752 C15.7725049,-0.0884352 14.4565049,-0.2085888 13.487534,0.4213632 C12.2483107,1.226112 12.0728932,2.2558848 12.9106796,4.2969216 C11.5650097,3.8793984 10.4504854,3.2472576 9.26586408,2.784768 C8.79363107,2.6004096 8.34520388,2.1401088 7.7961165,2.3620992 C6.34306796,2.9500032 4.89576699,3.5578368 3.48299029,4.2327552 C2.61137864,4.6488192 2.42586408,5.243328 2.7928932,5.9056896 C3.0918835,6.4464768 3.84687379,6.6197376 4.59215534,6.2981376 C5.23009709,6.0229632 5.87293204,5.7530112 6.4848932,5.4269568 C7.50963107,4.8810624 8.43856311,4.8722304 9.43895146,5.5612032 C10.0908738,6.0104064 9.99693204,6.2833152 9.51580583,6.7355136 C8.42578641,7.7593728 7.26221359,8.713152 6.35196117,9.9096192 C5.68353398,10.7880576 5.71499029,11.6953728 6.51603883,12.4522752 C7.5023301,13.384704 8.53471845,14.2712832 9.53596117,15.1889664 C9.84621359,15.4722048 10.1178252,15.7577088 9.38893204,15.8919552 C8.41246602,16.071936 7.45238835,16.3308672 6.47883495,16.5278592 C5.7671068,16.670976 5.18376699,17.3252352 5.30613592,17.8998528 C5.45009709,18.5769984 6.29825243,19.0114944 7.0278835,18.8411136 C8.95545631,18.3903744 10.8831845,17.9455872 12.8212039,17.5451136 C13.8148738,17.3400192 14.2804272,16.3597056 13.6821359,15.5689728 C13.1256699,14.8349568 12.5274175,14.1320064 11.9902136,13.3855104 C10.7293592,11.633664 10.7399612,11.6262528 12.3281942,10.0934016 C13.2212427,9.2318976 13.2135534,9.2363136 13.8923883,10.3575552 C14.188,10.8443904 14.44,11.43744 15.168233,11.3799552 C16.6050097,11.2670976 17.9955728,10.9026816 19.3785243,10.536 C19.9023301,10.3971072 20.1112621,9.6108288 19.8858641,9.1003776" id="Fill-5"></path>
                    </g>
                </g>
            </g>
        </g>
    </g>
</svg>