<?xml version="1.0" encoding="UTF-8" standalone="no"?>
<svg width="20px" height="25px" viewBox="0 0 20 25" version="1.1" xmlns="http://www.w3.org/2000/svg" xmlns:xlink="http://www.w3.org/1999/xlink" xmlns:sketch="http://www.bohemiancoding.com/sketch/ns">
    <!-- Generator: Sketch 3.3.2 (12043) - http://www.bohemiancoding.com/sketch -->
    <title>餐食</title>
    <desc>Created with Sketch.</desc>
    <defs></defs>
    <g id="商品页面" stroke="none" stroke-width="1" fill="none" fill-rule="evenodd" sketch:type="MSPage">
        <g id="4商品列表-城市" sketch:type="MSArtboardGroup" transform="translate(-852.000000, -743.000000)" fill="#A4A4A4">
            <g id="环球影城" sketch:type="MSLayerGroup" transform="translate(450.000000, 571.374932)">
                <g id="餐食" transform="translate(396.000000, 168.000000)" sketch:type="MSShapeGroup">
                    <path d="M15.9874154,4.54482392 C15.9874154,4.24470432 15.7390528,4 15.4326387,4 C15.1262517,4 14.877889,4.24470432 14.877889,4.54482392 L14.877889,4.81788704 L14.877889,10.539402 C14.877889,10.8403189 14.831908,11.6289967 13.7675237,11.6289967 C12.7386468,11.6289967 12.6580244,10.8402924 12.6580244,10.539402 L12.6580244,4.27255814 L11.548498,4.00002658 L10.4388904,4.27255814 L10.4388904,10.539402 C10.4388904,10.8402924 10.3929635,11.6289967 9.3285521,11.6289967 C8.29967524,11.6289967 8.21902571,10.8402924 8.21902571,10.539402 L8.21902571,4.81788704 L8.21902571,4.54482392 C8.21902571,4.24470432 7.97066306,4 7.66427605,4 C7.35786198,4 7.10949932,4.24470432 7.10949932,4.54482392 L7.10949932,5.0904186 C7.10949932,5.0904186 6,10.2297409 6,12.7186445 C6,13.5953223 7.47228687,15.3629502 10.1075237,15.8576213 L9.35491204,25.4613953 C9.3376184,25.5709236 9.32857916,25.6831096 9.32857916,25.7973953 C9.32857916,27.0010365 10.3227876,27.9766379 11.5484709,27.9766379 C12.7741001,27.9766379 13.7675237,27.0010365 13.7675237,25.7973953 C13.7675237,25.6831096 13.7584844,25.5709236 13.7412179,25.4613953 L12.9890663,15.8566645 C15.5853586,15.3671229 17.0969418,13.638299 17.0969418,12.7186711 C17.0969418,10.2796811 15.9874425,5.09047176 15.9874425,5.09047176 C15.9874425,5.09047176 15.9874154,4.74952824 15.9874154,4.54482392 L15.9874154,4.54482392 Z M25.9730717,13.8090897 C25.9146143,9.1693289 23.8792422,5.78110299 22.4879296,4.52959468 C22.2936671,4.21243854 21.9398917,4.00002658 21.5358863,4.00002658 C20.9230311,4.00002658 20.4263599,4.48863787 20.4263599,5.09044518 L20.4263599,6.18089037 L20.4263599,25.7974219 L20.5214344,25.7974219 C20.4600541,25.9678671 20.4263599,26.1511495 20.4263599,26.3422193 C20.4263599,27.2449435 21.1713938,27.9766645 22.0906631,27.9766645 C23.0107172,27.9766645 23.7557781,27.2449701 23.7557781,26.3422193 C23.7557781,26.1511495 23.7220568,25.9678405 23.6607037,25.7974219 L23.7557781,25.7974219 L23.7557781,20.3476678 C23.7557781,20.3476678 25.9748309,20.1552159 25.9748309,18.1683721 L25.9748309,13.8090631 L25.9730717,13.8090631 L25.9730717,13.8090897 L25.9730717,13.8090897 Z"></path>
                </g>
            </g>
        </g>
    </g>
</svg>